<svg preserveAspectRatio="none" data-bbox="10.9 4.8 1548.18 500.4" viewBox="10.9 4.8 1548.18 500.4" xmlns="http://www.w3.org/2000/svg" data-type="shape" role="presentation" aria-hidden="true">
    <g>
        <path d="m10.9 160.55 19-.05v11.66c7.94-7.8 18.42-13.66 29.31-13.7 10.11 0 19.65 3.83 25.12 14.7 8.73-8.38 21.54-14.84 33.2-14.87 16.33 0 29.77 10.4 29.86 37.62l.19 64-19.83.06-.19-63.38c-.05-15.74-7.06-21-15.62-21-7.58 0-16.7 5.11-23.48 11.93a38.68 38.68 0 0 1 .61 8.56l.19 64-19.83.06-.19-63.37c0-15.75-7.06-21-15.61-20.95-7.59 0-15.93 5.1-22.71 11.93l.22 72.51-20 .06Z"></path>
        <path d="M215.4 158c24.3-.07 47.11 19.1 47.2 51.76.1 32.27-22.58 51.78-46.88 51.85-24.11.08-46.91-19.29-47-51.56-.11-32.67 22.58-51.99 46.68-52.05Zm.26 86.31c13.42 0 26.61-10.57 26.53-34.49s-13.32-34.56-26.73-34.52c-13.22 0-26.41 10.77-26.34 34.68s13.33 34.36 26.54 34.32Z"></path>
        <path d="m284.62 159.73 19.05-.06v11.66c9.11-7.8 20.57-13.67 32.81-13.7 18.28-.06 33.47 11.36 33.56 38.77l.19 62.79-20 .06-.18-62.2c-.05-15.75-8.24-22.14-18.34-22.11-9.14 0-19.23 5.11-27 11.94l.22 72.51-20 .06Z"></path>
        <path d="m416 159.33.19 62.4c0 15.75 8.23 21.94 18.34 21.91 9.13 0 19.23-5.11 27-11.94l-.22-72.51 20-.06.3 99.73-19 .06v-11.67c-9.11 8-20.37 13.67-32.81 13.71-18.27.05-33.47-11.37-33.56-38.78l-.24-62.79Z"></path>
        <path d="m509.34 159.05 19.05-.06v11.66c7.94-7.8 18.42-13.66 29.31-13.69 10.11 0 19.65 3.83 25.12 14.7 8.72-8.39 21.54-14.84 33.2-14.88 16.33-.05 29.77 10.41 29.86 37.62l.19 64-19.83.06-.19-63.37c-.05-15.75-7.06-21-15.62-21-7.58 0-16.7 5.1-23.48 11.93a39.2 39.2 0 0 1 .61 8.55l.19 64-19.75.03-.19-63.38c0-15.74-7.06-21-15.62-20.94-7.58 0-15.92 5.1-22.7 11.92l.21 72.51-20 .06Z"></path>
        <path d="M687.19 214.11c1.62 20.21 14.86 29.5 26.92 29.47 10.1 0 19.42-5.9 23.46-17.57l19.07 4.22c-6.94 18.68-23.43 29.81-42.87 29.87-24.11.07-46.52-19.3-46.62-51.57-.1-32.66 22.2-52 46.3-52 22.55-.07 47.29 17 45.86 57.4Zm.34-15.17 51.52-.15c-2.19-16.52-12.52-25.79-25.16-25.79-13.02.05-23.89 9-26.36 25.94Z"></path>
        <path d="m781.5 158.23 19-.06v11.66c9.11-7.8 20.56-13.67 32.81-13.7 18.27-.06 33.47 11.36 33.55 38.77l.19 62.79-20 .06-.19-62.2c0-15.75-8.23-22.14-18.34-22.11-9.14 0-19.23 5.11-27 11.94l.22 72.51-20 .06Z"></path>
        <path d="m884 157.92 18.08-.06-.08-26.63 20-2.78.09 29.35 28.77-.09v17.3l-28.77.09.15 48.8c0 12.24 3.94 17.48 12.49 17.45 4.67 0 9.33-1 16.32-3.16l3.95 16.52c-9.32 3.33-17.29 4.71-23.7 4.73-20.41.07-29-14.1-29.07-34.9l-.15-49.38-18.08.06Z"></path>
        <path d="M1074.06 155.4c24.3-.08 47.1 19.1 47.2 51.76.1 32.27-22.59 51.78-46.89 51.85-24.1.07-46.9-19.3-47-51.57-.1-32.66 22.63-51.97 46.69-52.04Zm.26 86.31c13.41 0 26.6-10.58 26.53-34.49s-13.32-34.56-26.74-34.52c-13.22 0-26.4 10.77-26.33 34.68s13.32 34.37 26.54 34.33Z"></path>
        <path d="m1151.49 174.41-18.08.05-.05-17.3h18.08v-13.8c-.06-19.25 9.81-32.3 28.67-32.36a55.43 55.43 0 0 1 20 3.83l-3.83 17.12c-5.65-2.13-8.76-2.89-12.45-2.88-9.14 0-12.42 6.26-12.4 14.61v13.42l28.77-.09v17.3l-28.77.09.25 82.42-20 .06Z"></path>
        <path d="m1267.69 156.76 18.08-.06-.08-26.63 20-2.78.09 29.35 28.77-.09v17.31l-28.77.08.15 48.8c0 12.24 3.94 17.48 12.49 17.46 4.67 0 9.33-1 16.32-3.16l3.94 16.51c-9.32 3.33-17.29 4.72-23.7 4.73-20.41.07-29-14.1-29.07-34.9l-.15-49.38-18.08.06Z"></path>
        <path d="m1358.34 112.35 20-.06.17 55.21c8.72-7.61 20-13.08 31.84-13.12 18.27 0 33.47 11.37 33.55 38.78l.19 62.79-20 .06-.19-62.21c-.05-15.74-8.23-22.13-18.34-22.1-9.14 0-19.23 5.11-27 11.94l.22 72.51-20 .06Z"></path>
        <path d="M1485.19 211.7c1.62 20.21 14.86 29.5 26.92 29.47 10.11 0 19.42-5.9 23.47-17.57l19.06 4.22c-6.94 18.68-23.43 29.81-42.87 29.87-24.11.07-46.52-19.3-46.62-51.57-.1-32.66 22.2-52 46.31-52 22.55-.07 47.29 17 45.85 57.4Zm.34-15.17 51.52-.15c-2.19-16.52-12.52-25.82-25.16-25.78-13.02.04-23.89 9.01-26.36 25.93Z"></path>
        <path d="M64.93 47.74h15v-5.25c0-14.78-8.61-20.78-20.47-20.74-9.33 0-18.26 5.3-21.14 16.78L19 32.91C24.2 15 40.7 4.85 59.94 4.8c23.33-.07 39.89 12.12 40 37.78L100 76.8a66.67 66.67 0 0 0 6.11 28.56l-19.24 2a53 53 0 0 1-4.71-15.73 47.23 47.23 0 0 1-35.33 16.82c-16.72 0-31.52-10-31.58-28.09-.05-20.22 14.88-32.51 49.68-32.62ZM49.71 91.92C60.2 91.89 74 85 80 74.91v-12H64.84c-21.64.09-29.98 6.5-29.95 16.42.03 8.36 6.46 12.61 14.82 12.59Z"></path>
        <path d="M554.73 365.26c20.41-.06 37.16 11.55 43.25 33.5l-19.81 4.53c-2.57-14.18-12.7-20.76-23-20.73-13.22 0-26.41 10.77-26.34 34.69s13.33 34.36 26.55 34.32c10.3 0 20.39-6.67 22.87-20.87l19.85 4.42c-6 22-22.65 33.69-43.06 33.76-24.1.07-46.52-19.11-46.62-51.57-.1-32.66 22.2-51.97 46.31-52.05Z"></path>
        <path d="M627.89 324a12.93 12.93 0 1 1-12.79 12.87A13 13 0 0 1 627.89 324Zm-9.78 43 20-.06.3 99.72-20 .06Z"></path>
        <path d="M656 366.9h18.08l-.08-26.69 20-2.78.09 29.36 28.77-.09.05 17.3-28.77.09.14 48.79c0 12.25 4 17.49 12.5 17.46 4.67 0 9.33-1 16.32-3.16l3.94 16.51c-9.32 3.33-17.29 4.72-23.71 4.74-20.41.06-29-14.11-29.07-34.91l-.14-49.37-18.08.05Z"></path>
        <path d="M772.18 466.28 732 366.67l21.39-.06L782.6 441l28.54-74.54 20.42-.06-54.79 138.74-20 .06Z"></path>
        <path d="m897.07 366.17 18.08-.05-.08-26.63 20-2.79.09 29.36 28.77-.09v17.3l-28.77.09.15 48.79c0 12.25 3.94 17.49 12.49 17.46 4.67 0 9.33-1 16.32-3.16l4 16.55c-9.32 3.34-17.28 4.72-23.7 4.74-20.41.06-29-14.1-29.07-34.9l-.15-49.38-18.08.05Z"></path>
        <path d="M1025 363.84c24.3-.07 47.1 19.11 47.2 51.76.09 32.27-22.59 51.78-46.89 51.86-24.1.07-46.91-19.3-47-51.57-.12-32.66 22.56-51.97 46.69-52.05Zm.26 86.31c13.41 0 26.6-10.57 26.53-34.48s-13.33-34.57-26.74-34.53c-13.22 0-26.41 10.78-26.33 34.69s13.28 34.36 26.52 34.32Z"></path>
        <path d="m1152.37 321.27 20-.06.16 55.21c8.34-7.61 18.82-13.08 31.46-13.12 20.6-.06 39.51 17 39.62 51.79.1 34.41-21.43 51.77-41.64 51.83a49.82 49.82 0 0 1-30.17-10.21v8.36l-19 .06Zm20.38 118.53c7.8 6.39 15.39 9.86 23.75 9.84 13.8 0 26.79-11 26.72-34.49-.07-23.33-12-34.57-25-34.53-9.14 0-18.07 4.72-25.63 11.94Z"></path>
        <path d="m1284.7 365 .19 62.4c0 15.75 8.23 22 18.34 21.92 9.13 0 19.23-5.12 27-11.94l-.22-72.51 20-.07.3 99.73-19 .06v-11.67c-9.11 8-20.37 13.67-32.81 13.71-18.27.06-33.47-11.37-33.56-38.78l-.19-62.79Z"></path>
        <path d="M1387.79 321.73A12.93 12.93 0 1 1 1375 334.6a13 13 0 0 1 12.79-12.87Zm-9.78 43 20-.06.3 99.73-20 .06Z"></path>
        <path d="m1425.7 320.45 20-.06.43 143.85-20 .06Z"></path>
        <path d="M1509.61 362.38c11.66 0 20.81 3.63 29.19 9.63l-.16-51.9 20-.06.44 143.85-19.25.06v-11.67c-8 8-18.82 13.67-31.45 13.71-20.61.06-40.3-17.18-40.4-51.59-.12-34.8 21.41-51.97 41.63-52.03Zm3.56 86.3c9.14 0 18.26-4.33 25.82-11.94l-.14-47.23c-8-6.39-15.39-9.87-23.75-9.85-13.8 0-26.79 11.36-26.72 34.69.07 23.52 11.77 34.37 24.79 34.33Z"></path>
    </g>
</svg>